<svg width="24" height="24" viewBox="0 0 24 24" fill="none" xmlns="http://www.w3.org/2000/svg">
<g id="Icon/close_Light">
<path id="times" d="M14.9688 11.9688L21.7188 5.28125C22.0938 4.90625 22.0938 4.21875 21.7188 3.84375L20.1562 2.28125C19.7812 1.90625 19.0938 1.90625 18.7188 2.28125L12.0312 9.03125L5.28125 2.28125C4.90625 1.90625 4.21875 1.90625 3.84375 2.28125L2.28125 3.84375C1.90625 4.21875 1.90625 4.90625 2.28125 5.28125L9.03125 11.9688L2.28125 18.7188C1.90625 19.0938 1.90625 19.7812 2.28125 20.1562L3.84375 21.7188C4.21875 22.0938 4.90625 22.0938 5.28125 21.7188L12.0312 14.9688L18.7188 21.7188C19.0938 22.0938 19.7812 22.0938 20.1562 21.7188L21.7188 20.1562C22.0938 19.7812 22.0938 19.0938 21.7188 18.7188L14.9688 11.9688Z" fill="#84888B"/>
</g>
</svg>
