<svg viewBox="0 0 16 16" xmlns="http://www.w3.org/2000/svg">
<path d="M13.7812 3.28125L10.7219 0.21875C10.5813 0.078125 10.3906 0 10.1906 0H10V4H14V3.80938C14 3.6125 13.9219 3.42188 13.7812 3.28125ZM9 4.25V0H2.75C2.33437 0 2 0.334375 2 0.75V15.25C2 15.6656 2.33437 16 2.75 16H13.25C13.6656 16 14 15.6656 14 15.25V5H9.75C9.3375 5 9 4.6625 9 4.25ZM4 2.25C4 2.11188 4.11188 2 4.25 2H6.75C6.88812 2 7 2.11188 7 2.25V2.75C7 2.88812 6.88812 3 6.75 3H4.25C4.11188 3 4 2.88812 4 2.75V2.25ZM4 4.75V4.25C4 4.11188 4.11188 4 4.25 4H6.75C6.88812 4 7 4.11188 7 4.25V4.75C7 4.88812 6.88812 5 6.75 5H4.25C4.11188 5 4 4.88812 4 4.75ZM8.5 12.9963V13.75C8.5 13.8881 8.38812 14 8.25 14H7.75C7.61188 14 7.5 13.8881 7.5 13.75V12.9909C7.14719 12.9728 6.80406 12.8497 6.51969 12.6362C6.39781 12.5447 6.39156 12.3622 6.50187 12.2569L6.86906 11.9066C6.95563 11.8241 7.08437 11.8203 7.18563 11.8837C7.30656 11.9594 7.44375 12 7.58625 12H8.46469C8.66781 12 8.83344 11.815 8.83344 11.5878C8.83344 11.4019 8.72062 11.2381 8.55937 11.19L7.15312 10.7681C6.57219 10.5938 6.16625 10.0363 6.16625 9.41219C6.16625 8.64594 6.76156 8.02344 7.49969 8.00375V7.25C7.49969 7.11188 7.61156 7 7.74969 7H8.24969C8.38781 7 8.49969 7.11188 8.49969 7.25V8.00906C8.8525 8.02719 9.19562 8.15 9.48 8.36375C9.60187 8.45531 9.60812 8.63781 9.49781 8.74312L9.13062 9.09344C9.04406 9.17594 8.91531 9.17969 8.81406 9.11625C8.69313 9.04031 8.55594 9 8.41344 9H7.535C7.33187 9 7.16625 9.185 7.16625 9.41219C7.16625 9.59813 7.27906 9.76188 7.44031 9.81L8.84656 10.2319C9.4275 10.4062 9.83344 10.9637 9.83344 11.5878C9.83344 12.3544 9.23812 12.9766 8.5 12.9963Z" fill="currentColor"/>
</svg>
