<svg xmlns="http://www.w3.org/2000/svg" viewBox="0 0 24 24">
<path fill="currentColor" d="M2.74074 6.30612H21.2593C21.6684 6.30612 22 5.97721 22 5.57143V3.73469C22 3.32891 21.6684 3 21.2593 3L2.74074 3C2.33162 3 2 3.32891 2 3.73469V5.57143C2 5.97721 2.33162 6.30612 2.74074 6.30612ZM2.74074 13.6531H21.2593C21.6684 13.6531 22 13.3241 22 12.9184V11.0816C22 10.6759 21.6684 10.3469 21.2593 10.3469H2.74074C2.33162 10.3469 2 10.6759 2 11.0816V12.9184C2 13.3241 2.33162 13.6531 2.74074 13.6531ZM2.74074 21H21.2593C21.6684 21 22 20.6711 22 20.2653V18.4286C22 18.0228 21.6684 17.6939 21.2593 17.6939H2.74074C2.33162 17.6939 2 18.0228 2 18.4286V20.2653C2 20.6711 2.33162 21 2.74074 21Z" />
</svg>