<svg viewBox="0 0 16 16" xmlns="http://www.w3.org/2000/svg">
<path d="M4.6665 5.75C4.6665 4.78503 5.45157 4 6.4165 4H10.6665V1.75C10.6665 1.33578 10.3307 1 9.9165 1H7.39744C7.05107 0.402812 6.40516 0 5.6665 0C4.92785 0 4.28194 0.402812 3.93557 1H1.4165C1.00229 1 0.666504 1.33578 0.666504 1.75V12.25C0.666504 12.6642 1.00229 13 1.4165 13H4.6665V5.75ZM5.6665 1.25C6.08072 1.25 6.4165 1.58578 6.4165 2C6.4165 2.41422 6.08072 2.75 5.6665 2.75C5.25229 2.75 4.9165 2.41422 4.9165 2C4.9165 1.58578 5.25229 1.25 5.6665 1.25ZM11.4165 9H14.6665V15.25C14.6665 15.6642 14.3307 16 13.9165 16H6.4165C6.00229 16 5.6665 15.6642 5.6665 15.25V5.75C5.6665 5.33578 6.00229 5 6.4165 5H10.6665V8.25C10.6665 8.6625 11.004 9 11.4165 9ZM14.6665 7.81066V8H11.6665V5H11.8558C12.0548 5 12.2455 5.07901 12.3862 5.21966L14.4468 7.28031C14.5875 7.42097 14.6665 7.61174 14.6665 7.81066Z" fill="currentColor"/>
</svg>
