<svg viewBox="0 0 18 18" fill="none" xmlns="http://www.w3.org/2000/svg">
<path d="M11.4738 8.97392L17.0988 3.401C17.4113 3.0885 17.4113 2.51558 17.0988 2.20308L15.7967 0.901001C15.4842 0.588501 14.9113 0.588501 14.5988 0.901001L9.02588 6.526L3.40088 0.901001C3.08838 0.588501 2.51546 0.588501 2.20296 0.901001L0.900879 2.20308C0.588379 2.51558 0.588379 3.0885 0.900879 3.401L6.52588 8.97392L0.900879 14.5989C0.588379 14.9114 0.588379 15.4843 0.900879 15.7968L2.20296 17.0989C2.51546 17.4114 3.08838 17.4114 3.40088 17.0989L9.02588 11.4739L14.5988 17.0989C14.9113 17.4114 15.4842 17.4114 15.7967 17.0989L17.0988 15.7968C17.4113 15.4843 17.4113 14.9114 17.0988 14.5989L11.4738 8.97392Z" fill="currentColor"/>
</svg>
