<svg xmlns="http://www.w3.org/2000/svg" width="24" height="24" viewBox="0 0 24 24" fill="currentColor">
<path d="M21.7266 19.2913L17.8324 15.3971C17.6567 15.2214 17.4184 15.1237 17.1684 15.1237H16.5318C17.6098 13.7449 18.2504 12.0107 18.2504 10.1242C18.2504 5.63636 14.614 2 10.1262 2C5.63832 2 2.00195 5.63636 2.00195 10.1242C2.00195 14.612 5.63832 18.2484 10.1262 18.2484C12.0127 18.2484 13.7469 17.6079 15.1257 16.5298V17.1665C15.1257 17.4165 15.2233 17.6547 15.3991 17.8305L19.2932 21.7246C19.6604 22.0918 20.2541 22.0918 20.6173 21.7246L21.7227 20.6193C22.0898 20.2521 22.0898 19.6584 21.7266 19.2913ZM10.1262 15.1237C7.36471 15.1237 5.12665 12.8896 5.12665 10.1242C5.12665 7.36276 7.36081 5.12469 10.1262 5.12469C12.8876 5.12469 15.1257 7.35885 15.1257 10.1242C15.1257 12.8857 12.8915 15.1237 10.1262 15.1237Z" fill="currentColor"/>
</svg>