<svg xmlns="http://www.w3.org/2000/svg" width="24" height="25" viewBox="0 0 24 25" fill="none">
  <g clip-path="url(#clip0_3491_7159)">
    <path d="M7 9.125C7 7.67755 8.17759 6.5 9.625 6.5H16V3.125C16 2.50367 15.4963 2 14.875 2H11.0964C10.5768 1.10422 9.60798 0.5 8.5 0.5C7.39202 0.5 6.42316 1.10422 5.90359 2H2.125C1.50367 2 1 2.50367 1 3.125V18.875C1 19.4963 1.50367 20 2.125 20H7V9.125ZM8.5 2.375C9.12133 2.375 9.625 2.87867 9.625 3.5C9.625 4.12133 9.12133 4.625 8.5 4.625C7.87867 4.625 7.375 4.12133 7.375 3.5C7.375 2.87867 7.87867 2.375 8.5 2.375ZM17.125 14H22V23.375C22 23.9963 21.4963 24.5 20.875 24.5H9.625C9.00367 24.5 8.5 23.9963 8.5 23.375V9.125C8.5 8.50367 9.00367 8 9.625 8H16V12.875C16 13.4937 16.5063 14 17.125 14ZM22 12.216V12.5H17.5V8H17.784C18.0824 8 18.3685 8.11852 18.5795 8.32948L21.6705 11.4205C21.8815 11.6315 22 11.9176 22 12.216Z" fill="white"/>
  </g>
  <defs>
    <clipPath id="clip0_3491_7159">
      <rect width="24" height="24" fill="white" transform="translate(0 0.5)"/>
    </clipPath>
  </defs>
</svg>