<svg viewBox="0 0 30 30" xmlns="http://www.w3.org/2000/svg">
<path fill="currentColor" fill-rule="evenodd" clip-rule="evenodd" d="M21.5428 13.0827C17.6746 10.7855 11.2941 10.5743 7.60154 11.695C7.00859 11.8749 6.38152 11.5401 6.20183 10.9473C6.02214 10.3539 6.35659 9.72731 6.94998 9.54705C11.1888 8.2604 18.2354 8.50887 22.6884 11.1522C23.2219 11.4688 23.3967 12.1577 23.0805 12.6902C22.7641 13.2234 22.0748 13.3994 21.5428 13.0827ZM21.4161 16.4851C21.1448 16.9255 20.5689 17.0635 20.1292 16.7932C16.9043 14.811 11.9868 14.2367 8.17157 15.3948C7.67677 15.5444 7.15417 15.2653 7.004 14.7715C6.85497 14.2768 7.13397 13.7551 7.62791 13.6047C11.9862 12.2821 17.4042 12.9227 21.1083 15.1989C21.5481 15.4697 21.6865 16.0458 21.4161 16.4851ZM19.9476 19.7527C19.7321 20.1064 19.2715 20.2171 18.9193 20.0016C16.1013 18.2793 12.5546 17.8904 8.37749 18.8445C7.97483 18.9369 7.57374 18.6846 7.48189 18.2821C7.38975 17.8797 7.64095 17.4785 8.04447 17.3866C12.6156 16.3415 16.5366 16.7914 19.6996 18.7241C20.0522 18.9395 20.1633 19.4002 19.9476 19.7527ZM14.4443 2.44446C7.81706 2.44446 2.44434 7.81704 2.44434 14.4443C2.44434 21.0723 7.81706 26.4445 14.4443 26.4445C21.0719 26.4445 26.4443 21.0723 26.4443 14.4443C26.4443 7.81704 21.0719 2.44446 14.4443 2.44446Z" />
</svg>
