<svg xmlns="http://www.w3.org/2000/svg" width="24" height="24" viewBox="0 0 24 24" fill="currentColor">
<path d="M19.5249 14.2224H9.34625L9.57351 15.3336H18.8936C19.4283 15.3336 19.8247 15.8301 19.7062 16.3516L19.5146 17.1945C20.1636 17.5095 20.6111 18.1748 20.6111 18.9447C20.6111 20.0281 19.725 20.9045 18.6381 20.8889C17.6025 20.874 16.7509 20.0337 16.723 18.9984C16.7077 18.4329 16.9342 17.9203 17.3064 17.5557H10.0269C10.3873 17.9087 10.6111 18.4004 10.6111 18.9447C10.6111 20.0493 9.69 20.9388 8.57396 20.887C7.58299 20.841 6.77705 20.0403 6.72497 19.0496C6.68476 18.2845 7.08733 17.6102 7.69896 17.2584L5.25983 5.33355H2.83333C2.37309 5.33355 2 4.96046 2 4.50022V3.94466C2 3.48442 2.37309 3.11133 2.83333 3.11133H6.39337C6.78924 3.11133 7.13045 3.38984 7.20979 3.77765L7.52806 5.33355H21.1663C21.7011 5.33355 22.0974 5.83011 21.9789 6.35157L20.3375 13.5738C20.2513 13.9532 19.914 14.2224 19.5249 14.2224Z" fill="currentColor"/>
</svg>