<svg xmlns="http://www.w3.org/2000/svg" viewBox="0 0 24 24">
<path fill="currentColor" d="M19.5249 14.2222H9.34625L9.57351 15.3333H18.8936C19.4283 15.3333 19.8247 15.8299 19.7062 16.3513L19.5146 17.1942C20.1636 17.5093 20.6111 18.1746 20.6111 18.9444C20.6111 20.0278 19.725 20.9043 18.6381 20.8887C17.6025 20.8738 16.7509 20.0334 16.723 18.9981C16.7077 18.4326 16.9342 17.92 17.3064 17.5555H10.0269C10.3873 17.9085 10.6111 18.4002 10.6111 18.9444C10.6111 20.049 9.69 20.9386 8.57396 20.8867C7.58299 20.8407 6.77705 20.04 6.72497 19.0493C6.68476 18.2842 7.08733 17.6099 7.69896 17.2581L5.25983 5.33331H2.83333C2.37309 5.33331 2 4.96022 2 4.49997V3.94442C2 3.48417 2.37309 3.11108 2.83333 3.11108H6.39337C6.78924 3.11108 7.13045 3.38959 7.20979 3.7774L7.52806 5.33331H21.1663C21.7011 5.33331 22.0974 5.82987 21.9789 6.35133L20.3375 13.5736C20.2513 13.953 19.914 14.2222 19.5249 14.2222Z" />
</svg>