<svg xmlns="http://www.w3.org/2000/svg" viewBox="0 0 20 18">
<path fill="currentColor" d="M17.5249 11.2222H7.34625L7.57351 12.3333H16.8936C17.4283 12.3333 17.8247 12.8299 17.7062 13.3513L17.5146 14.1942C18.1636 14.5093 18.6111 15.1746 18.6111 15.9444C18.6111 17.0278 17.725 17.9043 16.6381 17.8887C15.6025 17.8738 14.7509 17.0334 14.723 15.9981C14.7077 15.4326 14.9342 14.92 15.3064 14.5555H8.02695C8.38726 14.9085 8.61111 15.4002 8.61111 15.9444C8.61111 17.049 7.69 17.9386 6.57396 17.8867C5.58299 17.8407 4.77705 17.04 4.72497 16.0493C4.68476 15.2842 5.08733 14.6099 5.69896 14.2581L3.25983 2.33331H0.833334C0.37309 2.33331 0 1.96022 0 1.49997V0.944418C0 0.484174 0.37309 0.111084 0.833334 0.111084H4.39337C4.78924 0.111084 5.13045 0.389591 5.20979 0.777404L5.52806 2.33331H19.1663C19.7011 2.33331 20.0974 2.82987 19.9789 3.35133L18.3375 10.5736C18.2513 10.953 17.914 11.2222 17.5249 11.2222Z" />
</svg>