<svg width="32" height="31" viewBox="0 0 32 31" fill="none" xmlns="http://www.w3.org/2000/svg">
<path d="M16 0C7.4375 0 0.5 6.9375 0.5 15.5C0.5 24.0625 7.4375 31 16 31C24.5625 31 31.5 24.0625 31.5 15.5C31.5 6.9375 24.5625 0 16 0ZM21.7806 19.5625L20.5306 21.125C20.4486 21.2276 20.3472 21.313 20.2321 21.3763C20.1171 21.4397 19.9907 21.4797 19.8602 21.4943C19.7297 21.5088 19.5975 21.4974 19.4714 21.4609C19.3453 21.4243 19.2276 21.3633 19.125 21.2812L14.9375 18.1737C14.6449 17.9395 14.4087 17.6424 14.2465 17.3046C14.0842 16.9667 14 16.5967 14 16.2219V6.5C14 6.23478 14.1054 5.98043 14.2929 5.79289C14.4804 5.60536 14.7348 5.5 15 5.5H17C17.2652 5.5 17.5196 5.60536 17.7071 5.79289C17.8946 5.98043 18 6.23478 18 6.5V15.5L21.625 18.1562C21.7276 18.2383 21.813 18.3398 21.8764 18.4549C21.9397 18.5701 21.9798 18.6965 21.9942 18.8271C22.0087 18.9577 21.9973 19.0899 21.9606 19.2161C21.924 19.3423 21.8628 19.46 21.7806 19.5625Z" fill="#5F9DF7"/>
</svg>
