<svg width="14" height="14" viewBox="0 0 14 14" fill="none" xmlns="http://www.w3.org/2000/svg">
<path d="M12.0001 5.75033H8.25008V2.00033C8.25008 1.54017 7.8769 1.16699 7.41675 1.16699H6.58341C6.12326 1.16699 5.75008 1.54017 5.75008 2.00033V5.75033H2.00008C1.53993 5.75033 1.16675 6.1235 1.16675 6.58366V7.41699C1.16675 7.87715 1.53993 8.25033 2.00008 8.25033H5.75008V12.0003C5.75008 12.4605 6.12326 12.8337 6.58341 12.8337H7.41675C7.8769 12.8337 8.25008 12.4605 8.25008 12.0003V8.25033H12.0001C12.4602 8.25033 12.8334 7.87715 12.8334 7.41699V6.58366C12.8334 6.1235 12.4602 5.75033 12.0001 5.75033Z" fill="#353535"/>
</svg>
