<svg xmlns="http://www.w3.org/2000/svg" viewBox="0 0 24 24">
<path fill="currentColor" d="M11.9991 2C11.288 2 10.7134 2.58652 10.7134 3.3125V4.1C7.78042 4.70703 5.57063 7.35664 5.57063 10.5312V11.3023C5.57063 13.2301 4.87555 15.0922 3.62199 16.5359L3.32467 16.8764C2.98718 17.2619 2.90682 17.8156 3.11173 18.2873C3.31664 18.759 3.77868 19.0625 4.28493 19.0625H19.7133C20.2195 19.0625 20.6776 18.759 20.8865 18.2873C21.0954 17.8156 21.011 17.2619 20.6736 16.8764L20.3762 16.5359C19.1227 15.0922 18.4276 13.2342 18.4276 11.3023V10.5312C18.4276 7.35664 16.2178 4.70703 13.2848 4.1V3.3125C13.2848 2.58652 12.7103 2 11.9991 2ZM13.8192 22.233C14.3013 21.7408 14.5705 21.0723 14.5705 20.375H11.9991H9.42772C9.42772 21.0723 9.69691 21.7408 10.179 22.233C10.6612 22.7252 11.3161 23 11.9991 23C12.6821 23 13.337 22.7252 13.8192 22.233Z" />
</svg>