<svg xmlns="http://www.w3.org/2000/svg" width="24" height="24" viewBox="0 0 24 24" fill="none">
<g clip-path="url(#clip0_3337_80931)">
<path d="M20.3391 4.58887L16.4062 0.656055C15.9844 0.23418 15.4125 -0.00488281 14.8172 -0.00488281H5.25C4.00781 -0.000195311 3 1.00762 3 2.24981V21.7498C3 22.992 4.00781 23.9998 5.25 23.9998H18.75C19.9922 23.9998 21 22.992 21 21.7498V6.18262C21 5.58731 20.7609 5.01074 20.3391 4.58887ZM18.5672 5.99981H15V2.43262L18.5672 5.99981ZM5.25 21.7498V2.24981H12.75V7.12481C12.75 7.74824 13.2516 8.24981 13.875 8.24981H18.75V21.7498H5.25Z" fill="#1746A2"/>
<rect y="9.5" width="18" height="11" rx="1" fill="#1746A2"/>
<path d="M13.9688 18H13.0391V12.2891H16.2656V13.0781H13.9688V14.8594H16.1172V15.6445H13.9688V18Z" fill="white"/>
<path d="M11.8086 15.0898C11.8086 15.7331 11.6888 16.2708 11.4492 16.7031C11.2096 17.1328 10.862 17.457 10.4062 17.6758C9.95052 17.8919 9.40104 18 8.75781 18H7.17188V12.2891H8.92969C9.52083 12.2891 10.0312 12.3958 10.4609 12.6094C10.8906 12.8203 11.2227 13.1341 11.457 13.5508C11.6914 13.9648 11.8086 14.4779 11.8086 15.0898ZM10.832 15.1172C10.832 14.6484 10.7578 14.263 10.6094 13.9609C10.4635 13.6589 10.2474 13.4349 9.96094 13.2891C9.67708 13.1406 9.32682 13.0664 8.91016 13.0664H8.10938V17.2148H8.77344C9.46354 17.2148 9.97917 17.0391 10.3203 16.6875C10.6615 16.3359 10.832 15.8125 10.832 15.1172Z" fill="white"/>
<path d="M3.91016 12.2891C4.64714 12.2891 5.1849 12.4401 5.52344 12.7422C5.86198 13.0443 6.03125 13.4674 6.03125 14.0117C6.03125 14.2591 5.99219 14.4948 5.91406 14.7188C5.83854 14.9401 5.71354 15.1367 5.53906 15.3086C5.36458 15.4779 5.13411 15.612 4.84766 15.7109C4.5638 15.8099 4.21354 15.8594 3.79688 15.8594H3.1875V18H2.25V12.2891H3.91016ZM3.84766 13.0664H3.1875V15.0781H3.69922C3.99349 15.0781 4.24349 15.0443 4.44922 14.9766C4.65495 14.9062 4.8112 14.7956 4.91797 14.6445C5.02474 14.4935 5.07812 14.2943 5.07812 14.0469C5.07812 13.7161 4.97786 13.4701 4.77734 13.3086C4.57943 13.1471 4.26953 13.0664 3.84766 13.0664Z" fill="white"/>
</g>
<defs>
<clipPath id="clip0_3337_80931">
<rect width="24" height="24" fill="white"/>
</clipPath>
</defs>
</svg>