<svg viewBox="0 0 30 30" xmlns="http://www.w3.org/2000/svg">
<path d="M11.5713 10.8572H16.3152V13.2888H16.383C17.043 12.1051 18.6587 10.8572 21.0663 10.8572C26.0738 10.8572 26.9999 13.9744 26.9999 18.0286V26.2857H22.055V18.9658C22.055 17.2198 22.0192 14.974 19.4828 14.974C16.9074 14.974 16.5144 16.8754 16.5144 18.839V26.2857H11.5713V10.8572Z" fill="currentColor"/>
<path d="M3 10.8572H8.14286V26.2857H3V10.8572Z" fill="currentColor"/>
<path d="M8.14286 6.57143C8.14286 7.99161 6.99161 9.14286 5.57143 9.14286C4.15125 9.14286 3 7.99161 3 6.57143C3 5.15125 4.15125 4 5.57143 4C6.99161 4 8.14286 5.15125 8.14286 6.57143Z" fill="currentColor"/>
</svg>
