<svg viewBox="0 0 24 24" xmlns="http://www.w3.org/2000/svg">
<path d="M21.7232 12.6742L15.0562 19.3412C14.4609 19.9364 13.4291 19.5198 13.4291 18.6665V14.8568H8.03205C7.50424 14.8568 7.07962 14.4322 7.07962 13.9044V10.0947C7.07962 9.56688 7.50424 9.14226 8.03205 9.14226H13.4291V5.33254C13.4291 4.4833 14.457 4.06264 15.0562 4.65791L21.7232 11.3249C22.0923 11.6979 22.0923 12.3011 21.7232 12.6742ZM9.61943 19.1428V17.5554C9.61943 17.2935 9.40513 17.0792 9.14321 17.0792H5.80971C5.1073 17.0792 4.53981 16.5117 4.53981 15.8093V8.18983C4.53981 7.48741 5.1073 6.91992 5.80971 6.91992H9.14321C9.40513 6.91992 9.61943 6.70563 9.61943 6.44371V4.85633C9.61943 4.59441 9.40513 4.38012 9.14321 4.38012H5.80971C3.70643 4.38012 2 6.08655 2 8.18983V15.8093C2 17.9125 3.70643 19.619 5.80971 19.619H9.14321C9.40513 19.619 9.61943 19.4047 9.61943 19.1428Z" fill="currentColor"/>
</svg>
